# xmcd
# 
# Track frame offsets:
#     150
#     16261
#     25673
#     44463
#     58476
#     75221
#     94467
#     111176
#     121266
#     131812
#     148035
#     159282
#     173152
# 
# Disc length: 2583
# 
# Revision: 1
# Processed by: cddbd v1.5.2PL0 Copyright (c) Steve Scherf et al.
# Submitted via: fre:ac v1.0.17
# 
DISCID=a90a150d
DTITLE=Various Artist - Delmark Records Presents The Blues Collection
DYEAR=2005
DGENRE=Blues
TTITLE0=Magic Sam - I Don't Want No Woman
TTITLE1=Junior Wells - Hoodoo Man Blues
TTITLE2=Big Mojo - Move On Out Of Town
TTITLE3=Carey Bell - Come On Over Here
TTITLE4=Otis Rush - Cut You A Loose
TTITLE5=Luther Allison - Five Long Years
TTITLE6=Jimmy Dowkins - Having Such A Hard Time
TTITLE7=J.B. Hutto - Speak My Mind
TTITLE8=Robert Jr. Lockwood - Take A Walk With Me
TTITLE9=Sleepy John Estes - Rats In My Kitchen
TTITLE10=Big Joe Williams - No.13 Highway
TTITLE11=Jimmy Burns - Whiskey Headed Woman
TTITLE12=Lurrie Bell - Tell Me About Your Love
EXTD=blues and soul records No.64
EXTT0=
EXTT1=
EXTT2=
EXTT3=
EXTT4=
EXTT5=
EXTT6=
EXTT7=
EXTT8=
EXTT9=
EXTT10=
EXTT11=
EXTT12=
PLAYORDER=
